<?xml version="1.0" encoding="utf-8"?>
<!-- Generator: Adobe Illustrator 25.2.3, SVG Export Plug-In . SVG Version: 6.00 Build 0)  -->
<svg version="1.1" id="Layer_2" xmlns="http://www.w3.org/2000/svg" xmlns:xlink="http://www.w3.org/1999/xlink" x="0px" y="0px"
	 viewBox="0 0 128 128" style="enable-background:new 0 0 128 128;" xml:space="preserve">
<style type="text/css">
	.st0{fill:#0071BC;}
</style>
<path class="st0" d="M64,120.6C32.8,120.6,7.4,95.2,7.4,64C7.4,32.8,32.8,7.4,64,7.4c31.2,0,56.6,25.4,56.6,56.6
	C120.6,95.2,95.2,120.6,64,120.6z M64,9.3C33.8,9.3,9.3,33.8,9.3,64s24.5,54.7,54.7,54.7s54.7-24.5,54.7-54.7S94.2,9.3,64,9.3z"/>
<g>
	<path class="st0" d="M32.7,73.7c-5.4,0-9.7-4.4-9.7-9.7s4.4-9.7,9.7-9.7c5.4,0,9.7,4.4,9.7,9.7S38.1,73.7,32.7,73.7z M32.7,58.3
		c-3.2,0-5.7,2.6-5.7,5.7s2.6,5.7,5.7,5.7s5.7-2.6,5.7-5.7S35.9,58.3,32.7,58.3z"/>
	<path class="st0" d="M64,73.7c-5.4,0-9.7-4.4-9.7-9.7s4.4-9.7,9.7-9.7c5.4,0,9.7,4.4,9.7,9.7S69.4,73.7,64,73.7z M64,58.3
		c-3.2,0-5.7,2.6-5.7,5.7s2.6,5.7,5.7,5.7s5.7-2.6,5.7-5.7S67.2,58.3,64,58.3z"/>
	<path class="st0" d="M95.3,73.7c-5.4,0-9.7-4.4-9.7-9.7s4.4-9.7,9.7-9.7c5.4,0,9.7,4.4,9.7,9.7S100.6,73.7,95.3,73.7z M95.3,58.3
		c-3.2,0-5.7,2.6-5.7,5.7s2.6,5.7,5.7,5.7s5.7-2.6,5.7-5.7S98.4,58.3,95.3,58.3z"/>
</g>
</svg>
