<?xml version="1.0" encoding="utf-8"?>
<!-- Generator: Adobe Illustrator 25.2.3, SVG Export Plug-In . SVG Version: 6.00 Build 0)  -->
<svg version="1.1" id="Layer_2" xmlns="http://www.w3.org/2000/svg" xmlns:xlink="http://www.w3.org/1999/xlink" x="0px" y="0px"
	 viewBox="0 0 128 128" style="enable-background:new 0 0 128 128;" xml:space="preserve">
<style type="text/css">
	.st0{fill:#0071BC;}
</style>
<path class="st0" d="M64,120.6C32.8,120.6,7.4,95.2,7.4,64C7.4,32.8,32.8,7.4,64,7.4c31.2,0,56.6,25.4,56.6,56.6
	C120.6,95.2,95.2,120.6,64,120.6z M64,9.3C33.8,9.3,9.3,33.8,9.3,64s24.5,54.7,54.7,54.7s54.7-24.5,54.7-54.7S94.2,9.3,64,9.3z"/>
<path class="st0" d="M64,83.5c-10.7,0-19.5-8.7-19.5-19.5c0-10.7,8.7-19.5,19.5-19.5S83.5,53.2,83.5,64C83.5,74.7,74.7,83.5,64,83.5
	z M64,48.5c-8.5,0-15.5,6.9-15.5,15.5S55.5,79.5,64,79.5c8.5,0,15.5-6.9,15.5-15.5S72.5,48.5,64,48.5z"/>
<path class="st0" d="M69.8,66H64c-1.1,0-2-0.9-2-2V52.4c0-1.1,0.9-2,2-2s2,0.9,2,2V62h3.8c1.1,0,2,0.9,2,2
	C71.8,65.1,70.9,66,69.8,66z"/>
<path class="st0" d="M87.3,97.3l-1.6,4.4c-0.6,1.7-2.8,2-3.8,0.5l-0.4-0.6c-5.4,2.5-11.4,3.8-17.4,3.8h-0.3
	c-11.1-0.1-21.4-4.5-29.2-12.3c-7.8-7.9-12-18.3-12-29.4c0.1-9.6,3.5-19,9.7-26.3c0.7-0.8,2-1,2.8-0.2c0.8,0.7,1,2,0.2,2.8
	c-5.6,6.6-8.7,15.1-8.7,23.8c-0.1,10,3.8,19.4,10.8,26.5c7,7.1,16.4,11.1,26.4,11.1H64c5.2,0,10.3-1.1,15.1-3.2l-0.3-0.5
	c-1-1.4,0-3.4,1.8-3.4l4.7,0C86.8,94.5,87.8,95.9,87.3,97.3z"/>
<path class="st0" d="M105.4,64c0,10.4-3.9,20.4-11,28.1c-0.4,0.4-0.9,0.6-1.5,0.6c-0.5,0-1-0.2-1.3-0.5c-0.8-0.8-0.9-2-0.1-2.8
	c6.4-6.9,9.9-15.9,9.9-25.3c0-20.6-16.8-37.4-37.4-37.4c-5.8,0-11.4,1.3-16.6,3.9l0.4,0.5c1,1.4,0,3.4-1.8,3.4h-4.7
	c-1.5,0-2.5-1.5-2-2.9l1.6-4.4c0.6-1.7,2.8-2,3.8-0.5l0.4,0.6c5.8-3,12.3-4.6,18.9-4.6C86.8,22.6,105.4,41.2,105.4,64z"/>
</svg>
