<?xml version="1.0" encoding="utf-8"?>
<!-- Generator: Adobe Illustrator 25.2.3, SVG Export Plug-In . SVG Version: 6.00 Build 0)  -->
<svg version="1.1" id="Layer_2" xmlns="http://www.w3.org/2000/svg" xmlns:xlink="http://www.w3.org/1999/xlink" x="0px" y="0px"
	 viewBox="0 0 128 128" style="enable-background:new 0 0 128 128;" xml:space="preserve">
<style type="text/css">
	.st0{fill:#0071BC;}
</style>
<path class="st0" d="M64,120.1C33.1,120.1,7.9,95,7.9,64C7.9,33.1,33.1,7.9,64,7.9c31,0,56.1,25.2,56.1,56.1
	C120.1,95,95,120.1,64,120.1z M64,9.8C34.1,9.8,9.8,34.1,9.8,64s24.3,54.2,54.2,54.2s54.2-24.3,54.2-54.2S93.9,9.8,64,9.8z"/>
<path class="st0" d="M83.1,76.2c-0.1,0-0.2,0-0.3,0H83c0.2,0,0.4,0,0.7,0C83.5,76.3,83.3,76.2,83.1,76.2z"/>
<path class="st0" d="M103.3,86.3c-3.2-7.9-10.6-13.1-19-13.5c-0.4,0-0.9,0-1.3,0h-0.3c-0.1,0-0.2,0-0.4,0h0
	c-7.2,0.2-13.8,4-17.8,10.1c-0.3,0.5-0.4,1.1-0.1,1.7c3.4,7.8,10.3,12.1,19.4,12.1c6.4,0,10.9-3,15.8-6.2c1-0.6,1.9-1.3,3-1.9
	C103.3,88,103.6,87.1,103.3,86.3z M82.4,76.3c0.1,0,0.3,0,0.4,0c0.1,0,0.2,0,0.3,0c0.2,0,0.4,0,0.5,0c0.1,0,0.1,0,0.2,0
	c3.5,0.4,6.2,3.3,6.2,6.9c0,3.8-3.1,7-7,7c-3.8,0-7-3.1-7-7C76.2,79.6,78.9,76.6,82.4,76.3z M68.1,83.9c1.5-2,3.3-3.7,5.4-5
	c-0.6,1.3-0.9,2.8-0.9,4.3c0,3.6,1.8,6.8,4.6,8.7C73.2,90.5,70.1,87.8,68.1,83.9z M97.6,87.4c-3.1,2-5.9,3.8-9,4.8c3-1.9,5-5.2,5-9
	c0-1.4-0.3-2.8-0.8-4.1c2.7,1.7,5,4.2,6.5,7.1C98.8,86.6,98.2,87,97.6,87.4z"/>
<path class="st0" d="M83.1,72.7c-0.1,0-0.3,0-0.4,0H83c0.4,0,0.9,0,1.3,0C83.9,72.7,83.5,72.7,83.1,72.7z"/>
<circle class="st0" cx="83.1" cy="83.2" r="3.5"/>
<circle class="st0" cx="54.3" cy="54.4" r="3.5"/>
<path class="st0" d="M96.7,35.8v35.6c0,1.1-0.9,2-2,2c-1.1,0-2-0.9-2-2V37.8H31.4v32.5h37.7c1.1,0,2,0.9,2,2c0,1.1-0.9,2-2,2H31.4
	V78h29.9c1.1,0,2,0.9,2,2c0,1.1-0.9,2-2,2h-6.6v9H64c1.1,0,2,0.9,2,2c0,1.1-0.9,2-2,2H44.5c-1.1,0-2-0.9-2-2c0-1.1,0.9-2,2-2h6.3v-9
	H29.4c-1.1,0-2-0.9-2-2V35.8c0-1.1,0.9-2,2-2h65.3C95.8,33.8,96.7,34.7,96.7,35.8z"/>
</svg>
