<?xml version="1.0" encoding="utf-8"?>
<!-- Generator: Adobe Illustrator 25.2.3, SVG Export Plug-In . SVG Version: 6.00 Build 0)  -->
<svg version="1.1" id="Layer_2" xmlns="http://www.w3.org/2000/svg" xmlns:xlink="http://www.w3.org/1999/xlink" x="0px" y="0px"
	 viewBox="0 0 128 128" style="enable-background:new 0 0 128 128;" xml:space="preserve">
<style type="text/css">
	.st0{fill:#0071BC;}
</style>
<path class="st0" d="M64,120.1C33.1,120.1,7.9,95,7.9,64C7.9,33.1,33.1,7.9,64,7.9c31,0,56.1,25.2,56.1,56.1
	C120.1,95,95,120.1,64,120.1z M64,9.8C34.1,9.8,9.8,34.1,9.8,64s24.3,54.2,54.2,54.2s54.2-24.3,54.2-54.2S93.9,9.8,64,9.8z"/>
<path class="st0" d="M71,98.3H58.7c-1.2,0-2.2-1-2.2-2.2v0c0-1.2,1-2.2,2.2-2.2H71c1.2,0,2.2,1,2.2,2.2v0
	C73.2,97.3,72.2,98.3,71,98.3z"/>
<path class="st0" d="M90.3,91.7l-8.7-8.7c-0.9-0.9-0.9-2.3,0-3.1l0,0c0.9-0.9,2.3-0.9,3.1,0l8.7,8.7c0.9,0.9,0.9,2.3,0,3.1l0,0
	C92.6,92.6,91.1,92.6,90.3,91.7z"/>
<path class="st0" d="M36.7,88.6l8.7-8.7c0.9-0.9,2.3-0.9,3.1,0l0,0c0.9,0.9,0.9,2.3,0,3.1l-8.7,8.7c-0.9,0.9-2.3,0.9-3.1,0l0,0
	C35.8,90.9,35.8,89.5,36.7,88.6z"/>
<path class="st0" d="M93.4,39l-8.7,8.7c-0.9,0.9-2.3,0.9-3.1,0l0,0c-0.9-0.9-0.9-2.3,0-3.1l8.7-8.7c0.9-0.9,2.3-0.9,3.1,0v0
	C94.3,36.7,94.3,38.1,93.4,39z"/>
<path class="st0" d="M67.1,26.1v12.3c0,1.2-1,2.2-2.2,2.2h0c-1.2,0-2.2-1-2.2-2.2V26.1c0-1.2,1-2.2,2.2-2.2h0
	C66.1,23.9,67.1,24.9,67.1,26.1z"/>
<path class="st0" d="M27.8,61.7h12.3c1.2,0,2.2,1,2.2,2.2v0c0,1.2-1,2.2-2.2,2.2H27.8c-1.2,0-2.2-1-2.2-2.2v0
	C25.6,62.7,26.6,61.7,27.8,61.7z"/>
<path class="st0" d="M89.7,61.7H102c1.2,0,2.2,1,2.2,2.2v0c0,1.2-1,2.2-2.2,2.2H89.7c-1.2,0-2.2-1-2.2-2.2v0
	C87.5,62.7,88.5,61.7,89.7,61.7z"/>
<path class="st0" d="M45.4,47.6L36.7,39c-0.9-0.9-0.9-2.3,0-3.1v0c0.9-0.9,2.3-0.9,3.1,0l8.7,8.7c0.9,0.9,0.9,2.3,0,3.1l0,0
	C47.6,48.5,46.2,48.5,45.4,47.6z"/>
<path class="st0" d="M68.8,104.5h-7.9c-1.2,0-2.2-1-2.2-2.2v0c0-1.2,1-2.2,2.2-2.2h7.9c1.2,0,2.2,1,2.2,2.2v0
	C71,103.5,70,104.5,68.8,104.5z"/>
<path class="st0" d="M72.2,91.8H57.5c-1,0-1.9-0.8-1.9-1.9c0-3.7-0.8-6.7-2.2-8.9c-0.7-1.1-1.5-2.2-2.3-3.3
	c-1.3-1.7-2.7-3.5-3.7-5.6c-2.9-5.7-2.6-12.9,0.8-18.4c3.2-5.3,10.1-9,16.7-9.1c6.7,0.1,13.6,3.8,16.8,9.1
	c3.3,5.5,3.6,12.7,0.8,18.4l0,0c-1,2.1-2.4,3.9-3.7,5.6c-0.9,1.1-1.7,2.2-2.4,3.3c-1.4,2.2-2.1,5.2-2.2,8.9
	C74.1,90.9,73.2,91.8,72.2,91.8z M59.3,88h11.1c0.3-3.6,1.1-6.6,2.7-9.1c0.8-1.2,1.7-2.4,2.5-3.5c1.3-1.7,2.5-3.3,3.3-5
	c2.3-4.6,2-10.4-0.6-14.7c-2.5-4.2-8.2-7.2-13.5-7.3c-5.3,0.1-10.9,3.1-13.5,7.3c-2.7,4.4-2.9,10.2-0.6,14.7c0.9,1.8,2.1,3.3,3.4,5
	c0.9,1.1,1.7,2.3,2.5,3.5C58.2,81.3,59.1,84.4,59.3,88z M80.7,71.2L80.7,71.2L80.7,71.2z"/>
</svg>
